<?xml version="1.0" encoding="utf-8"?>
<!-- Generator: Adobe Illustrator 18.0.0, SVG Export Plug-In . SVG Version: 6.00 Build 0)  -->
<!DOCTYPE svg PUBLIC "-//W3C//DTD SVG 1.1//EN" "http://www.w3.org/Graphics/SVG/1.1/DTD/svg11.dtd">
<svg version="1.1" id="Ebene_1" xmlns="http://www.w3.org/2000/svg" xmlns:xlink="http://www.w3.org/1999/xlink" x="0px" y="0px"
	 viewBox="0 0 2048 1536" enable-background="new 0 0 2048 1536" xml:space="preserve">
<rect x="0" fill="#CC1417" stroke="#000000" stroke-miterlimit="10" width="2048" height="1536"/>
<rect y="1126.9" fill="none" width="2048" height="129"/>
<text transform="matrix(1 0 0 1 697.5747 1218.0674)" fill="#FFFFFF" font-family="'Verdana'" font-size="120">Lernräume</text>
<g>
	<line fill="none" stroke="#FFFFFF" stroke-width="24" stroke-linecap="round" x1="634.3" y1="899" x2="1413.7" y2="899"/>
	<path fill="none" stroke="#FFFFFF" stroke-width="24" stroke-linecap="round" d="M656.1,858.2c0,0-2.1-113.9,109.9-113.9
		c113.3,0,111.9,111.9,111.9,111.9"/>
	<path fill="none" stroke="#FFFFFF" stroke-width="24" stroke-linecap="round" stroke-linejoin="round" d="M818.7,687.6
		c0,27.8-22.6,50.4-50.5,50.4c-27.8,0-50.5-22.6-50.5-50.4c0-27.9,22.6-50.4,50.5-50.4C796.1,637.2,818.7,659.7,818.7,687.6z"/>
	<path fill="none" stroke="#FFFFFF" stroke-width="24" stroke-miterlimit="10" d="M1159.1,857.3c0,0-2-113.9,109.9-113.9
		c113.2,0,111.9,112,111.9,112"/>
	<path fill="none" stroke="#FFFFFF" stroke-width="24" stroke-miterlimit="10" d="M1321.7,686.7c0,27.8-22.6,50.4-50.5,50.4
		c-27.9,0-50.4-22.6-50.4-50.4c0-27.9,22.6-50.4,50.4-50.4C1299.1,636.3,1321.7,658.8,1321.7,686.7z"/>
	<line fill="none" stroke="#FFFFFF" stroke-width="24" stroke-linecap="round" x1="929.3" y1="779" x2="1097.2" y2="779"/>
	<line fill="none" stroke="#FFFFFF" stroke-width="24" stroke-linecap="round" x1="928.6" y1="810.8" x2="1096.5" y2="810.8"/>
	<line fill="none" stroke="#FFFFFF" stroke-width="24" stroke-linecap="round" x1="928.6" y1="842.4" x2="1096.5" y2="842.4"/>
</g>
</svg>
