<?xml version="1.0" encoding="UTF-8" standalone="no"?>
<!-- Generator: Adobe Illustrator 18.0.0, SVG Export Plug-In . SVG Version: 6.00 Build 0)  -->

<svg
   xmlns:dc="http://purl.org/dc/elements/1.1/"
   xmlns:cc="http://creativecommons.org/ns#"
   xmlns:rdf="http://www.w3.org/1999/02/22-rdf-syntax-ns#"
   xmlns:svg="http://www.w3.org/2000/svg"
   xmlns="http://www.w3.org/2000/svg"
   xmlns:sodipodi="http://sodipodi.sourceforge.net/DTD/sodipodi-0.dtd"
   xmlns:inkscape="http://www.inkscape.org/namespaces/inkscape"
   version="1.1"
   id="Ebene_1"
   x="0px"
   y="0px"
   viewBox="0 0 2048 1536"
   enable-background="new 0 0 2048 1536"
   xml:space="preserve"
   inkscape:version="0.48.4 r9939"
   width="100%"
   height="100%"
   sodipodi:docname="Deckblatt.svg"><metadata
   id="metadata3045"><rdf:RDF><cc:Work
       rdf:about=""><dc:format>image/svg+xml</dc:format><dc:type
         rdf:resource="http://purl.org/dc/dcmitype/StillImage" /></cc:Work></rdf:RDF></metadata><defs
   id="defs3043" /><sodipodi:namedview
   pagecolor="#ffffff"
   bordercolor="#666666"
   borderopacity="1"
   objecttolerance="10"
   gridtolerance="10"
   guidetolerance="10"
   inkscape:pageopacity="0"
   inkscape:pageshadow="2"
   inkscape:window-width="1366"
   inkscape:window-height="706"
   id="namedview3041"
   showgrid="false"
   inkscape:zoom="0.73539105"
   inkscape:cx="1004.4988"
   inkscape:cy="768"
   inkscape:window-x="-8"
   inkscape:window-y="-8"
   inkscape:window-maximized="1"
   inkscape:current-layer="Ebene_1"><inkscape:grid
     type="xygrid"
     id="grid3815" /></sodipodi:namedview>
<rect
   x="0"
   fill="#CC1417"
   stroke="#000000"
   stroke-miterlimit="10"
   width="2048"
   height="1536"
   id="rect3017" />
<rect
   y="1126.9"
   fill="none"
   width="2048"
   height="129"
   id="rect3019" />
<text
   transform="matrix(1 0 0 1 697.5747 1218.0674)"
   fill="#FFFFFF"
   font-family="'Verdana'"
   font-size="120"
   id="text3021">Lernräume</text>

<g
   id="g3023">
	<line
   fill="none"
   stroke="#FFFFFF"
   stroke-width="24"
   stroke-linecap="round"
   x1="634.3"
   y1="899"
   x2="1413.7"
   y2="899"
   id="line3025" />
	<path
   fill="none"
   stroke="#FFFFFF"
   stroke-width="24"
   stroke-linecap="round"
   d="M656.1,858.2c0,0-2.1-113.9,109.9-113.9   c113.3,0,111.9,111.9,111.9,111.9"
   id="path3027" />
	<path
   fill="none"
   stroke="#FFFFFF"
   stroke-width="24"
   stroke-linecap="round"
   stroke-linejoin="round"
   d="M818.7,687.6   c0,27.8-22.6,50.4-50.5,50.4c-27.8,0-50.5-22.6-50.5-50.4c0-27.9,22.6-50.4,50.5-50.4C796.1,637.2,818.7,659.7,818.7,687.6z"
   id="path3029" />
	<path
   stroke-miterlimit="10"
   d="m 1380.8983,857.3 c 0,0 2,-113.9 -109.9,-113.9 -113.2,0 -111.9,112 -111.9,112"
   id="path3031"
   style="fill:none;stroke:#ffffff;stroke-width:24;stroke-linecap:round;stroke-linejoin:round;stroke-miterlimit:10"
   inkscape:connector-curvature="0" />
	<path
   fill="none"
   stroke="#FFFFFF"
   stroke-width="24"
   stroke-miterlimit="10"
   d="M1321.7,686.7c0,27.8-22.6,50.4-50.5,50.4   c-27.9,0-50.4-22.6-50.4-50.4c0-27.9,22.6-50.4,50.4-50.4C1299.1,636.3,1321.7,658.8,1321.7,686.7z"
   id="path3033" />
	<line
   x1="935.5"
   y1="779"
   x2="1103.3999"
   y2="779"
   id="line3035"
   style="fill:none;stroke:#ffffff;stroke-width:24;stroke-linecap:round" />
	<line
   x1="934.79999"
   y1="810.79999"
   x2="1102.7"
   y2="810.79999"
   id="line3037"
   style="fill:none;stroke:#ffffff;stroke-width:24;stroke-linecap:round" />
	<line
   x1="934.79999"
   y1="842.40002"
   x2="1102.7"
   y2="842.40002"
   id="line3039"
   style="fill:none;stroke:#ffffff;stroke-width:24;stroke-linecap:round" />
</g>
</svg>