<?xml version="1.0" encoding="utf-8"?>
<!-- Generator: Adobe Illustrator 18.0.0, SVG Export Plug-In . SVG Version: 6.00 Build 0)  -->
<!DOCTYPE svg PUBLIC "-//W3C//DTD SVG 1.1//EN" "http://www.w3.org/Graphics/SVG/1.1/DTD/svg11.dtd">
<svg version="1.1"
	 id="svg3716" xmlns:inkscape="http://www.inkscape.org/namespaces/inkscape" xmlns:cc="http://creativecommons.org/ns#" xmlns:dc="http://purl.org/dc/elements/1.1/" xmlns:rdf="http://www.w3.org/1999/02/22-rdf-syntax-ns#" xmlns:svg="http://www.w3.org/2000/svg" xmlns:sodipodi="http://sodipodi.sourceforge.net/DTD/sodipodi-0.dtd" inkscape:version="0.48.4 r9939" sodipodi:docname="Neues Dokument 3"
	 xmlns="http://www.w3.org/2000/svg" xmlns:xlink="http://www.w3.org/1999/xlink" x="0px" y="0px" viewBox="0 0 10 10"
	 enable-background="new 0 0 10 10" xml:space="preserve">
<g id="layer1" inkscape:label="Layer 1" inkscape:groupmode="layer" sodipodi:insensitive="true">
	<rect id="rect4493" x="-1.3" y="-0.6" display="none" fill="#5B5B5B" width="13.2" height="11.9"/>
</g>
<g id="layer2" inkscape:label="Ebene" inkscape:groupmode="layer">
	<path id="path3953" inkscape:connector-curvature="0" fill="none" d="M7.4,1.6l0,8.1l1.6-1.4l0-8.1L7.4,1.6z"/>
	<g id="g5224">
		<path id="path3922-1-1" inkscape:connector-curvature="0" fill="#666666" fill-opacity="0.4" d="M9.1,2.5v2L7.5,5.8v-2L9.1,2.5z"
			/>
		<path id="path3922-1-1-8" sodipodi:nodetypes="ccccc" inkscape:connector-curvature="0" fill="#666666" fill-opacity="0.4" d="
			M9.1,0.5v2L7.5,3.9v-2L9.1,0.5z"/>
		<rect id="rect3926-51" x="1.2" y="1.9" fill="#D6D6D6" width="6.2" height="1.9"/>
		<rect id="rect3926-4" x="1.2" y="7.8" fill="#D6D6D6" width="6.2" height="2"/>
		<rect id="rect3926-0" x="1.2" y="3.9" fill="#D6D6D6" width="6.2" height="1.9"/>
		<path id="path5102" sodipodi:nodetypes="ccccc" inkscape:connector-curvature="0" fill="#FFFFFF" d="M1.3,1.9l1.7-1.4l6.1,0
			L7.5,1.9H1.3z"/>
		<path id="path3922-1-1-5" inkscape:connector-curvature="0" fill="#666666" fill-opacity="0.4" d="M9.1,6.5v2L7.5,9.8v-2L9.1,6.5z
			"/>
		<path id="path3922-1-1-4" inkscape:connector-curvature="0" fill="#CC0000" d="M9.1,4.5v2L7.5,7.8v-2L9.1,4.5z"/>
		<rect id="rect3926-0-1" x="1.2" y="5.8" fill="#CC0000" width="6.2" height="1.9"/>
	</g>
</g>
<g id="layer4" inkscape:label="Ebene#1" inkscape:groupmode="layer" sodipodi:insensitive="true" display="none">
	
		<path id="rect3769" display="inline" fill="none" stroke="#FFFFFF" stroke-width="0.577" stroke-linecap="round" stroke-linejoin="round" d="
		M0.7,2h5.6c0.2,0,0.3,0.1,0.3,0.3v7.6c0,0.2-0.1,0.3-0.3,0.3H0.7c-0.2,0-0.3-0.1-0.3-0.3V2.3C0.4,2.2,0.5,2,0.7,2z"/>
</g>
</svg>
