<?xml version="1.0" encoding="utf-8"?>
<!-- Generator: Adobe Illustrator 15.0.2, SVG Export Plug-In . SVG Version: 6.00 Build 0)  -->
<!DOCTYPE svg PUBLIC "-//W3C//DTD SVG 1.1//EN" "http://www.w3.org/Graphics/SVG/1.1/DTD/svg11.dtd">
<svg version="1.1" id="Ebene_1" xmlns="http://www.w3.org/2000/svg" xmlns:xlink="http://www.w3.org/1999/xlink" x="0px" y="0px"
	 width="53px" height="39px" viewBox="0 0 53 39" enable-background="new 0 0 53 39" xml:space="preserve">
<g>
	<defs>
		<rect id="SVGID_1_" x="-33" y="-15" width="192.5" height="135"/>
	</defs>
	<clipPath id="SVGID_2_">
		<use xlink:href="#SVGID_1_"  overflow="visible"/>
	</clipPath>
	<path clip-path="url(#SVGID_2_)" fill="none" stroke="#78CBE4" stroke-width="3" stroke-miterlimit="10" d="M39.812,34.484H7.627
		V7.53h31.636c0,0,1.829-0.176,3.475,1.05c1.646,1.225,1.646,3.5,1.646,3.5v16.278"/>
	
		<ellipse clip-path="url(#SVGID_2_)" fill="none" stroke="#78CBE4" stroke-width="3" stroke-miterlimit="10" cx="26.006" cy="21.096" rx="8.489" ry="8.565"/>
	
		<path clip-path="url(#SVGID_2_)" fill="none" stroke="#E52520" stroke-width="3" stroke-linecap="round" stroke-miterlimit="10" d="
		M26.52,96.875l2.299-16.765c0,0,0.48-1.533,0.671-1.82c0.191-0.288,0.862-0.958,0.862-0.958l10.346-7.952
		c0,0,2.204-2.203,2.395-3.161c0.34-1.702-1.246-3.928-3.161-3.928H10.616c0,0-3.352,0.479-3.257,3.353
		c0.096,2.874,2.395,4.6,2.395,4.6l10.059,7.28c0,0,0.941,0.986,1.245,2.587c0.384,2.011,0.575,4.598,0.575,4.598"/>
	
		<ellipse clip-path="url(#SVGID_2_)" fill="none" stroke="#E52520" stroke-width="3" stroke-linecap="round" stroke-miterlimit="10" cx="96.109" cy="71.25" rx="3.583" ry="3.375"/>
	
		<path clip-path="url(#SVGID_2_)" fill="none" stroke="#E52520" stroke-width="3" stroke-linecap="round" stroke-miterlimit="10" d="
		M105.825,90.524c4.443-2.913,7.366-7.847,7.366-13.44c0-8.951-7.479-16.209-16.707-16.209s-16.708,7.258-16.708,16.209
		s7.48,16.208,16.708,16.208V79.375"/>
	<path clip-path="url(#SVGID_2_)" fill="none" stroke="#E52520" stroke-width="3" stroke-miterlimit="10" d="M112,19.513
		c0-4.517,1.023-10.978-1.75-14.125c-3.288-3.73-10.813-3.75-16.187-3.75c-9.907,0-17.938,8.003-17.938,17.875
		s8.031,17.875,17.938,17.875C103.969,37.388,112,29.385,112,19.513z"/>
	<polyline clip-path="url(#SVGID_2_)" fill="none" stroke="#E52520" stroke-width="3" stroke-miterlimit="10" points="97,13.138 
		91.375,19.138 96.875,24.888 	"/>
</g>
</svg>
