<?xml version="1.0" encoding="utf-8"?>
<!-- Generator: Adobe Illustrator 15.0.2, SVG Export Plug-In . SVG Version: 6.00 Build 0)  -->
<!DOCTYPE svg PUBLIC "-//W3C//DTD SVG 1.1//EN" "http://www.w3.org/Graphics/SVG/1.1/DTD/svg11.dtd">
<svg version="1.1" id="Ebene_1" xmlns="http://www.w3.org/2000/svg" xmlns:xlink="http://www.w3.org/1999/xlink" x="0px" y="0px"
	 width="48.333px" height="43px" viewBox="0 0 48.333 43" enable-background="new 0 0 48.333 43" xml:space="preserve">
<g>
	<defs>
		<rect id="SVGID_1_" x="-103.667" y="-13.667" width="192.499" height="134.999"/>
	</defs>
	<clipPath id="SVGID_2_">
		<use xlink:href="#SVGID_1_"  overflow="visible"/>
	</clipPath>
	<path clip-path="url(#SVGID_2_)" fill="none" stroke="#78CBE4" stroke-width="3" stroke-miterlimit="10" d="M-30.855,35.817H-63.04
		V8.864h31.636c0,0,1.828-0.176,3.474,1.05c1.646,1.225,1.646,3.5,1.646,3.5v16.278"/>
	
		<ellipse clip-path="url(#SVGID_2_)" fill="none" stroke="#78CBE4" stroke-width="3" stroke-miterlimit="10" cx="-44.661" cy="22.429" rx="8.489" ry="8.565"/>
	
		<path clip-path="url(#SVGID_2_)" fill="none" stroke="#E52520" stroke-width="3" stroke-linecap="round" stroke-miterlimit="10" d="
		M-44.147,98.208l2.299-16.764c0,0,0.479-1.533,0.671-1.82c0.191-0.289,0.861-0.959,0.861-0.959l10.346-7.951
		c0,0,2.205-2.203,2.395-3.162c0.34-1.701-1.246-3.928-3.16-3.928H-60.05c0,0-3.352,0.479-3.257,3.354
		c0.096,2.873,2.396,4.6,2.396,4.6l10.059,7.279c0,0,0.941,0.986,1.244,2.588c0.385,2.01,0.576,4.598,0.576,4.598"/>
	
		<ellipse clip-path="url(#SVGID_2_)" fill="none" stroke="#E52520" stroke-width="3" stroke-linecap="round" stroke-miterlimit="10" cx="25.44" cy="72.583" rx="3.583" ry="3.375"/>
	
		<path clip-path="url(#SVGID_2_)" fill="none" stroke="#E52520" stroke-width="3" stroke-linecap="round" stroke-miterlimit="10" d="
		M35.156,91.858c4.443-2.914,7.367-7.848,7.367-13.441c0-8.951-7.48-16.209-16.707-16.209c-9.229,0-16.709,7.258-16.709,16.209
		s7.48,16.209,16.709,16.209V80.708"/>
	<path clip-path="url(#SVGID_2_)" fill="none" stroke="#E52520" stroke-width="3" stroke-miterlimit="10" d="M41.332,20.846
		c0-4.517,1.023-10.978-1.75-14.125c-3.289-3.73-10.814-3.75-16.188-3.75c-9.906,0-17.938,8.003-17.938,17.875
		s8.031,17.875,17.938,17.875S41.332,30.718,41.332,20.846z"/>
	<polyline clip-path="url(#SVGID_2_)" fill="none" stroke="#E52520" stroke-width="3" stroke-miterlimit="10" points="
		26.332,14.471 20.707,20.471 26.207,26.221 	"/>
</g>
</svg>
