<?xml version="1.0" encoding="utf-8"?>
<!-- Generator: Adobe Illustrator 15.0.2, SVG Export Plug-In . SVG Version: 6.00 Build 0)  -->
<!DOCTYPE svg PUBLIC "-//W3C//DTD SVG 1.1//EN" "http://www.w3.org/Graphics/SVG/1.1/DTD/svg11.dtd">
<svg version="1.1" id="Ebene_1" xmlns="http://www.w3.org/2000/svg" xmlns:xlink="http://www.w3.org/1999/xlink" x="0px" y="0px"
	 width="50px" height="50px" viewBox="0 0 50 50" enable-background="new 0 0 50 50" xml:space="preserve">
<g>
	<path fill="none" stroke="#E52520" stroke-width="3" stroke-miterlimit="10" d="M43.452-19.437H4.167v-32.901h38.616
		c0,0,2.232-0.215,4.241,1.282c2.01,1.495,2.01,4.272,2.01,4.272v19.869"/>
	<path fill="none" stroke="#E52520" stroke-width="3" stroke-miterlimit="10" d="M36.962-35.779c0,5.774-4.642,10.456-10.362,10.456
		c-5.721,0-10.363-4.682-10.363-10.456c0-5.774,4.642-10.455,10.363-10.455C32.32-46.234,36.962-41.553,36.962-35.779z"/>
</g>
<path fill="none" stroke="#78CBE4" stroke-width="3" stroke-linecap="round" stroke-miterlimit="10" d="M26.394,46.799l2.807-20.466
	c0,0,0.586-1.872,0.819-2.223c0.233-0.353,1.052-1.171,1.052-1.171l12.63-9.707c0,0,2.692-2.689,2.924-3.86
	c0.415-2.077-1.521-4.795-3.858-4.795H6.979c0,0-4.092,0.584-3.977,4.094c0.117,3.508,2.925,5.615,2.925,5.615l12.28,8.887
	c0,0,1.149,1.204,1.519,3.16c0.47,2.453,0.704,5.612,0.704,5.612"/>
<g>
	
		<ellipse fill="none" stroke="#78CBE4" stroke-width="3" stroke-linecap="round" stroke-miterlimit="10" cx="95.586" cy="15.559" rx="4.686" ry="4.414"/>
	<path fill="none" stroke="#78CBE4" stroke-width="3" stroke-linecap="round" stroke-miterlimit="10" d="M108.291,40.766
		c5.811-3.811,9.634-10.263,9.634-17.577c0-11.706-9.782-21.197-21.848-21.197c-12.068,0-21.851,9.491-21.851,21.197
		c0,11.705,9.782,21.196,21.851,21.196V26.184"/>
</g>
<g>
	<path fill="none" stroke="#E52520" stroke-width="3" stroke-miterlimit="10" d="M115.333-35.382c0-5.21,1.179-12.663-2.021-16.292
		C109.52-55.976,100.839-56,94.641-56c-11.425,0-20.69,9.231-20.69,20.618s9.266,20.618,20.69,20.618
		C106.068-14.764,115.333-23.995,115.333-35.382z"/>
	<polyline fill="none" stroke="#E52520" stroke-width="3" stroke-miterlimit="10" points="98.029,-42.735 91.542,-35.814 
		97.886,-29.182 	"/>
</g>
<g>
	<ellipse fill="none" stroke="#78CBE4" stroke-width="3" stroke-miterlimit="10" cx="95.71" cy="72.678" rx="5.481" ry="5.532"/>
	<path fill="none" stroke="#78CBE4" stroke-width="3" stroke-miterlimit="10" d="M110.476,72.926
		c0,7.827-13.433,27.703-14.122,27.703c-1.088,0-14.223-19.876-14.223-27.703c0-7.828,6.344-14.175,14.172-14.175
		S110.476,65.098,110.476,72.926z"/>
</g>
<g>
	<g>
		<path fill="none" stroke="#78CBE4" stroke-width="3" stroke-linecap="round" stroke-miterlimit="10" d="M16.429,95.623V62.787
			H45.16v32.275c0,0,0.188,1.867-1.119,3.547c-1.306,1.679-3.731,1.679-3.731,1.679H22.958"/>
		<polyline fill="none" stroke="#78CBE4" stroke-width="3" stroke-linecap="round" stroke-miterlimit="10" points="9.526,90.586 
			9.526,56.257 38.816,56.257 		"/>
	</g>
</g>
</svg>
