<?xml version="1.0" encoding="utf-8"?>
<!-- Generator: Adobe Illustrator 15.0.2, SVG Export Plug-In . SVG Version: 6.00 Build 0)  -->
<!DOCTYPE svg PUBLIC "-//W3C//DTD SVG 1.1//EN" "http://www.w3.org/Graphics/SVG/1.1/DTD/svg11.dtd">
<svg version="1.1" id="Ebene_1" xmlns="http://www.w3.org/2000/svg" xmlns:xlink="http://www.w3.org/1999/xlink" x="0px" y="0px"
	 width="33.667px" height="41.667px" viewBox="0 0 33.667 41.667" enable-background="new 0 0 33.667 41.667" xml:space="preserve">
<g>
	<defs>
		<rect id="SVGID_1_" x="-111.667" y="-124.333" width="192.499" height="134.999"/>
	</defs>
	<clipPath id="SVGID_2_">
		<use xlink:href="#SVGID_1_"  overflow="visible"/>
	</clipPath>
	<path clip-path="url(#SVGID_2_)" fill="none" stroke="#78CBE4" stroke-width="3" stroke-miterlimit="10" d="M-38.855-74.849H-71.04
		v-26.954h31.636c0,0,1.828-0.176,3.474,1.05c1.646,1.225,1.646,3.5,1.646,3.5v16.278"/>
	
		<ellipse clip-path="url(#SVGID_2_)" fill="none" stroke="#78CBE4" stroke-width="3" stroke-miterlimit="10" cx="-52.661" cy="-88.237" rx="8.489" ry="8.565"/>
	
		<path clip-path="url(#SVGID_2_)" fill="none" stroke="#78CBE4" stroke-width="3" stroke-linecap="round" stroke-miterlimit="10" d="
		M-52.147-12.459l2.299-16.764c0,0,0.479-1.533,0.671-1.82c0.191-0.289,0.861-0.959,0.861-0.959l10.346-7.951
		c0,0,2.205-2.203,2.395-3.162c0.34-1.701-1.246-3.928-3.16-3.928H-68.05c0,0-3.352,0.479-3.257,3.354
		c0.096,2.873,2.396,4.6,2.396,4.6l10.059,7.279c0,0,0.941,0.986,1.244,2.588c0.385,2.01,0.576,4.598,0.576,4.598"/>
	
		<ellipse clip-path="url(#SVGID_2_)" fill="none" stroke="#78CBE4" stroke-width="3" stroke-linecap="round" stroke-miterlimit="10" cx="17.44" cy="-38.084" rx="3.583" ry="3.375"/>
	
		<path clip-path="url(#SVGID_2_)" fill="none" stroke="#78CBE4" stroke-width="3" stroke-linecap="round" stroke-miterlimit="10" d="
		M27.156-18.809c4.443-2.914,7.367-7.848,7.367-13.441c0-8.951-7.48-16.209-16.707-16.209c-9.229,0-16.709,7.258-16.709,16.209
		s7.48,16.209,16.709,16.209v-13.918"/>
	<path clip-path="url(#SVGID_2_)" fill="none" stroke="#78CBE4" stroke-width="3" stroke-miterlimit="10" d="M33.332-89.82
		c0-4.517,1.023-10.978-1.75-14.125c-3.289-3.73-10.814-3.75-16.188-3.75c-9.906,0-17.938,8.003-17.938,17.875
		s8.031,17.875,17.938,17.875S33.332-79.948,33.332-89.82z"/>
	<polyline clip-path="url(#SVGID_2_)" fill="none" stroke="#78CBE4" stroke-width="3" stroke-miterlimit="10" points="
		18.332,-96.195 12.707,-90.195 18.207,-84.445 	"/>
</g>
<g>
	<g>
		<path fill="none" stroke="#78CBE4" stroke-width="3" stroke-linecap="round" stroke-miterlimit="10" d="M-60.667,39.333V10.001
			H-35v28.832c0,0,0.167,1.668-1,3.168s-3.333,1.5-3.333,1.5h-15.5"/>
		<polyline fill="none" stroke="#78CBE4" stroke-width="3" stroke-linecap="round" stroke-miterlimit="10" points="-66.834,34.834 
			-66.834,4.167 -40.667,4.167 		"/>
	</g>
</g>
<g>
	<ellipse fill="none" stroke="#79CBE3" stroke-width="3" stroke-miterlimit="10" cx="15.542" cy="14.335" rx="4.625" ry="4.667"/>
	<path fill="none" stroke="#79CBE3" stroke-width="3" stroke-miterlimit="10" d="M28,14.543c0,6.604-11.333,23.375-11.916,23.375
		c-0.917,0-12-16.771-12-23.375c0-6.604,5.354-11.958,11.958-11.958S28,7.939,28,14.543z"/>
</g>
</svg>
