<?xml version="1.0" encoding="utf-8"?>
<!-- Generator: Adobe Illustrator 15.0.2, SVG Export Plug-In . SVG Version: 6.00 Build 0)  -->
<!DOCTYPE svg PUBLIC "-//W3C//DTD SVG 1.1//EN" "http://www.w3.org/Graphics/SVG/1.1/DTD/svg11.dtd">
<svg version="1.1" id="Ebene_1" xmlns="http://www.w3.org/2000/svg" xmlns:xlink="http://www.w3.org/1999/xlink" x="0px" y="0px"
	 width="50px" height="50px" viewBox="0 0 50 50" enable-background="new 0 0 50 50" xml:space="preserve">
<g>
	<path fill="none" stroke="#E52520" stroke-width="3" stroke-miterlimit="10" d="M41.452-73.065H2.167v-32.901h38.616
		c0,0,2.232-0.215,4.241,1.282c2.01,1.495,2.01,4.272,2.01,4.272v19.869"/>
	<path fill="none" stroke="#E52520" stroke-width="3" stroke-miterlimit="10" d="M34.962-89.408c0,5.774-4.642,10.456-10.362,10.456
		c-5.721,0-10.363-4.682-10.363-10.456c0-5.774,4.642-10.455,10.363-10.455C30.32-99.863,34.962-95.182,34.962-89.408z"/>
</g>
<path fill="none" stroke="#E52520" stroke-width="3" stroke-linecap="round" stroke-miterlimit="10" d="M24.394-6.83l2.807-20.466
	c0,0,0.586-1.872,0.819-2.223c0.233-0.353,1.052-1.171,1.052-1.171l12.63-9.707c0,0,2.692-2.689,2.924-3.86
	c0.415-2.077-1.521-4.795-3.858-4.795H4.979c0,0-4.092,0.584-3.977,4.094c0.117,3.508,2.925,5.615,2.925,5.615l12.28,8.887
	c0,0,1.149,1.204,1.519,3.16c0.47,2.453,0.704,5.612,0.704,5.612"/>
<g>
	
		<ellipse fill="none" stroke="#E52520" stroke-width="3" stroke-linecap="round" stroke-miterlimit="10" cx="93.586" cy="-38.07" rx="4.686" ry="4.414"/>
	<path fill="none" stroke="#E52520" stroke-width="3" stroke-linecap="round" stroke-miterlimit="10" d="M106.291-12.863
		c5.811-3.811,9.634-10.263,9.634-17.577c0-11.706-9.782-21.197-21.848-21.197c-12.068,0-21.851,9.491-21.851,21.197
		c0,11.705,9.782,21.196,21.851,21.196v-18.201"/>
</g>
<g>
	<path fill="none" stroke="#E52520" stroke-width="3" stroke-miterlimit="10" d="M113.333-89.011c0-5.21,1.179-12.663-2.021-16.292
		c-3.793-4.302-12.474-4.326-18.672-4.326c-11.425,0-20.69,9.231-20.69,20.618s9.266,20.618,20.69,20.618
		C104.068-68.393,113.333-77.624,113.333-89.011z"/>
	<polyline fill="none" stroke="#E52520" stroke-width="3" stroke-miterlimit="10" points="96.029,-96.364 89.542,-89.443 
		95.886,-82.811 	"/>
</g>
<g>
	<ellipse fill="none" stroke="#E52520" stroke-width="3" stroke-miterlimit="10" cx="93.71" cy="19.049" rx="5.481" ry="5.532"/>
	<path fill="none" stroke="#E52520" stroke-width="3" stroke-miterlimit="10" d="M108.476,19.297
		C108.476,27.124,95.043,47,94.354,47c-1.088,0-14.223-19.876-14.223-27.703c0-7.828,6.344-14.175,14.172-14.175
		S108.476,11.469,108.476,19.297z"/>
</g>
<g>
	<g>
		<path fill="none" stroke="#E52520" stroke-width="3" stroke-linecap="round" stroke-miterlimit="10" d="M14.429,41.994V9.158
			H43.16v32.275c0,0,0.188,1.867-1.119,3.547c-1.306,1.679-3.731,1.679-3.731,1.679H20.958"/>
		<polyline fill="none" stroke="#E52520" stroke-width="3" stroke-linecap="round" stroke-miterlimit="10" points="7.526,36.957 
			7.526,2.628 36.816,2.628 		"/>
	</g>
</g>
</svg>
