<?xml version="1.0" encoding="utf-8"?>
<!-- Generator: Adobe Illustrator 15.0.2, SVG Export Plug-In . SVG Version: 6.00 Build 0)  -->
<!DOCTYPE svg PUBLIC "-//W3C//DTD SVG 1.1//EN" "http://www.w3.org/Graphics/SVG/1.1/DTD/svg11.dtd">
<svg version="1.1" id="Ebene_1" xmlns="http://www.w3.org/2000/svg" xmlns:xlink="http://www.w3.org/1999/xlink" x="0px" y="0px"
	 width="42.667px" height="39.667px" viewBox="0 0 42.667 39.667" enable-background="new 0 0 42.667 39.667" xml:space="preserve">
<g>
	<defs>
		<rect id="SVGID_1_" x="-108.333" y="-73" width="192.499" height="134.999"/>
	</defs>
	<clipPath id="SVGID_2_">
		<use xlink:href="#SVGID_1_"  overflow="visible"/>
	</clipPath>
	<path clip-path="url(#SVGID_2_)" fill="none" stroke="#78CBE4" stroke-width="3" stroke-miterlimit="10" d="M-35.521-23.516
		h-32.185V-50.47h31.636c0,0,1.828-0.176,3.474,1.05c1.646,1.225,1.646,3.5,1.646,3.5v16.278"/>
	
		<ellipse clip-path="url(#SVGID_2_)" fill="none" stroke="#78CBE4" stroke-width="3" stroke-miterlimit="10" cx="-49.327" cy="-36.904" rx="8.489" ry="8.565"/>
	
		<path clip-path="url(#SVGID_2_)" fill="none" stroke="#78CBE4" stroke-width="3" stroke-linecap="round" stroke-miterlimit="10" d="
		M-48.813,38.874l2.299-16.764c0,0,0.479-1.533,0.671-1.82c0.191-0.289,0.861-0.959,0.861-0.959l10.346-7.951
		c0,0,2.205-2.203,2.395-3.162c0.34-1.701-1.246-3.928-3.16-3.928h-29.314c0,0-3.352,0.479-3.257,3.354
		c0.096,2.873,2.396,4.6,2.396,4.6l10.059,7.279c0,0,0.941,0.986,1.244,2.588c0.385,2.01,0.576,4.598,0.576,4.598"/>
	
		<ellipse clip-path="url(#SVGID_2_)" fill="none" stroke="#E52520" stroke-width="3" stroke-linecap="round" stroke-miterlimit="10" cx="20.774" cy="13.249" rx="3.583" ry="3.375"/>
	
		<path clip-path="url(#SVGID_2_)" fill="none" stroke="#E52520" stroke-width="3" stroke-linecap="round" stroke-miterlimit="10" d="
		M30.49,32.524c4.443-2.914,7.367-7.848,7.367-13.441c0-8.951-7.48-16.209-16.707-16.209c-9.229,0-16.709,7.258-16.709,16.209
		s7.48,16.209,16.709,16.209V21.374"/>
	<path clip-path="url(#SVGID_2_)" fill="none" stroke="#78CBE4" stroke-width="3" stroke-miterlimit="10" d="M36.666-38.487
		c0-4.517,1.023-10.978-1.75-14.125c-3.289-3.73-10.814-3.75-16.188-3.75c-9.906,0-17.938,8.003-17.938,17.875
		s8.031,17.875,17.938,17.875S36.666-28.615,36.666-38.487z"/>
	<polyline clip-path="url(#SVGID_2_)" fill="none" stroke="#78CBE4" stroke-width="3" stroke-miterlimit="10" points="
		21.666,-44.862 16.041,-38.862 21.541,-33.112 	"/>
</g>
</svg>
