<?xml version="1.0" encoding="utf-8"?>
<!-- Generator: Adobe Illustrator 15.0.2, SVG Export Plug-In . SVG Version: 6.00 Build 0)  -->
<!DOCTYPE svg PUBLIC "-//W3C//DTD SVG 1.1//EN" "http://www.w3.org/Graphics/SVG/1.1/DTD/svg11.dtd">
<svg version="1.1" id="Ebene_1" xmlns="http://www.w3.org/2000/svg" xmlns:xlink="http://www.w3.org/1999/xlink" x="0px" y="0px"
	 width="50px" height="50px" viewBox="0 0 50 50" enable-background="new 0 0 50 50" xml:space="preserve">
<g>
	<path fill="none" stroke="#78CBE4" stroke-width="3" stroke-miterlimit="10" d="M-26.473,40.958h-39.286V8.057h38.616
		c0,0,2.232-0.215,4.241,1.282c2.01,1.495,2.01,4.272,2.01,4.272V33.48"/>
	<path fill="none" stroke="#78CBE4" stroke-width="3" stroke-miterlimit="10" d="M-32.962,24.616
		c0,5.774-4.642,10.456-10.362,10.456c-5.721,0-10.363-4.682-10.363-10.456c0-5.774,4.642-10.455,10.363-10.455
		C-37.604,14.161-32.962,18.841-32.962,24.616z"/>
</g>
<path fill="none" stroke="#78CBE4" stroke-width="3" stroke-linecap="round" stroke-miterlimit="10" d="M-43.531,107.193
	l2.807-20.466c0,0,0.586-1.872,0.819-2.223c0.233-0.353,1.052-1.171,1.052-1.171l12.63-9.707c0,0,2.692-2.689,2.924-3.86
	c0.415-2.077-1.521-4.795-3.858-4.795h-35.788c0,0-4.092,0.584-3.977,4.094c0.117,3.508,2.925,5.615,2.925,5.615l12.28,8.887
	c0,0,1.149,1.204,1.519,3.16c0.47,2.453,0.704,5.612,0.704,5.612"/>
<g>
	
		<ellipse fill="none" stroke="#78CBE4" stroke-width="3" stroke-linecap="round" stroke-miterlimit="10" cx="25.661" cy="75.953" rx="4.686" ry="4.414"/>
	<path fill="none" stroke="#78CBE4" stroke-width="3" stroke-linecap="round" stroke-miterlimit="10" d="M38.366,101.16
		C44.177,97.35,48,90.897,48,83.583c0-11.706-9.782-21.197-21.848-21.197c-12.068,0-21.851,9.491-21.851,21.197
		c0,11.705,9.782,21.196,21.851,21.196V86.578"/>
</g>
<g>
	<path fill="none" stroke="#CC0000" stroke-width="3" stroke-miterlimit="10" d="M45.408,25.013c0-5.21,1.179-12.663-2.021-16.292
		c-3.793-4.302-12.474-4.326-18.672-4.326c-11.425,0-20.69,9.231-20.69,20.618s9.266,20.618,20.69,20.618
		C36.144,45.631,45.408,36.399,45.408,25.013z"/>
	<polyline fill="none" stroke="#CC0000" stroke-width="3" stroke-miterlimit="10" points="28.104,17.659 21.617,24.58 
		27.961,31.213 	"/>
</g>
<g>
	<ellipse fill="none" stroke="#78CBE4" stroke-width="3" stroke-miterlimit="10" cx="25.786" cy="133.072" rx="5.481" ry="5.532"/>
	<path fill="none" stroke="#78CBE4" stroke-width="3" stroke-miterlimit="10" d="M40.551,133.32
		c0,7.827-13.433,27.703-14.122,27.703c-1.088,0-14.223-19.876-14.223-27.703c0-7.828,6.344-14.175,14.172-14.175
		S40.551,125.492,40.551,133.32z"/>
</g>
<g>
	<g>
		<path fill="none" stroke="#78CBE4" stroke-width="3" stroke-linecap="round" stroke-miterlimit="10" d="M-53.496,156.018v-32.836
			h28.731v32.275c0,0,0.188,1.867-1.119,3.547c-1.306,1.679-3.731,1.679-3.731,1.679h-17.352"/>
		<polyline fill="none" stroke="#78CBE4" stroke-width="3" stroke-linecap="round" stroke-miterlimit="10" points="-60.399,150.98 
			-60.399,116.651 -31.108,116.651 		"/>
	</g>
</g>
</svg>
