<?xml version="1.0" encoding="utf-8"?>
<!-- Generator: Adobe Illustrator 15.0.2, SVG Export Plug-In . SVG Version: 6.00 Build 0)  -->
<!DOCTYPE svg PUBLIC "-//W3C//DTD SVG 1.1//EN" "http://www.w3.org/Graphics/SVG/1.1/DTD/svg11.dtd">
<svg version="1.1" id="Ebene_1" xmlns="http://www.w3.org/2000/svg" xmlns:xlink="http://www.w3.org/1999/xlink" x="0px" y="0px"
	 width="50px" height="50px" viewBox="0 0 50 50" enable-background="new 0 0 50 50" xml:space="preserve">
<g>
	<path fill="none" stroke="#CC0000" stroke-width="3" stroke-miterlimit="10" d="M-27.548-74.065h-39.286v-32.901h38.616
		c0,0,2.232-0.215,4.241,1.282c2.01,1.495,2.01,4.272,2.01,4.272v19.869"/>
	<path fill="none" stroke="#CC0000" stroke-width="3" stroke-miterlimit="10" d="M-34.038-90.408
		c0,5.774-4.642,10.456-10.362,10.456c-5.721,0-10.363-4.682-10.363-10.456c0-5.774,4.642-10.455,10.363-10.455
		C-38.68-100.863-34.038-96.182-34.038-90.408z"/>
</g>
<path fill="none" stroke="#CC0000" stroke-width="3" stroke-linecap="round" stroke-miterlimit="10" d="M-44.606-7.83l2.807-20.466
	c0,0,0.586-1.872,0.819-2.223c0.233-0.353,1.052-1.171,1.052-1.171l12.63-9.707c0,0,2.692-2.689,2.924-3.86
	c0.415-2.077-1.521-4.795-3.858-4.795h-35.788c0,0-4.092,0.584-3.977,4.094c0.117,3.508,2.925,5.615,2.925,5.615l12.28,8.887
	c0,0,1.149,1.204,1.519,3.16c0.47,2.453,0.704,5.612,0.704,5.612"/>
<g>
	
		<ellipse fill="none" stroke="#CC0000" stroke-width="3" stroke-linecap="round" stroke-miterlimit="10" cx="24.586" cy="-39.07" rx="4.686" ry="4.414"/>
	<path fill="none" stroke="#CC0000" stroke-width="3" stroke-linecap="round" stroke-miterlimit="10" d="M37.291-13.863
		c5.811-3.811,9.634-10.263,9.634-17.577c0-11.706-9.782-21.197-21.848-21.197c-12.068,0-21.851,9.491-21.851,21.197
		c0,11.705,9.782,21.196,21.851,21.196v-18.201"/>
</g>
<g>
	<path fill="none" stroke="#CC0000" stroke-width="3" stroke-miterlimit="10" d="M44.333-90.011c0-5.21,1.179-12.663-2.021-16.292
		c-3.793-4.302-12.474-4.326-18.672-4.326c-11.425,0-20.69,9.231-20.69,20.618s9.266,20.618,20.69,20.618
		C35.068-69.393,44.333-78.624,44.333-90.011z"/>
	<polyline fill="none" stroke="#CC0000" stroke-width="3" stroke-miterlimit="10" points="27.029,-97.364 20.542,-90.443 
		26.886,-83.811 	"/>
</g>
<g>
	<ellipse fill="none" stroke="#CC0000" stroke-width="3" stroke-miterlimit="10" cx="24.71" cy="18.049" rx="5.481" ry="5.532"/>
	<path fill="none" stroke="#CC0000" stroke-width="3" stroke-miterlimit="10" d="M39.476,18.297C39.476,26.124,26.043,46,25.354,46
		c-1.088,0-14.223-19.876-14.223-27.703c0-7.828,6.344-14.175,14.172-14.175S39.476,10.469,39.476,18.297z"/>
</g>
<g>
	<g>
		<path fill="none" stroke="#78CBE4" stroke-width="3" stroke-linecap="round" stroke-miterlimit="10" d="M-54.571,40.994V8.158
			h28.731v32.275c0,0,0.188,1.867-1.119,3.547c-1.306,1.679-3.731,1.679-3.731,1.679h-17.352"/>
		<polyline fill="none" stroke="#78CBE4" stroke-width="3" stroke-linecap="round" stroke-miterlimit="10" points="-61.474,35.957 
			-61.474,1.628 -32.184,1.628 		"/>
	</g>
</g>
</svg>
