<?xml version="1.0" encoding="utf-8"?>
<!-- Generator: Adobe Illustrator 15.0.2, SVG Export Plug-In . SVG Version: 6.00 Build 0)  -->
<!DOCTYPE svg PUBLIC "-//W3C//DTD SVG 1.1//EN" "http://www.w3.org/Graphics/SVG/1.1/DTD/svg11.dtd">
<svg version="1.1" id="Ebene_1" xmlns="http://www.w3.org/2000/svg" xmlns:xlink="http://www.w3.org/1999/xlink" x="0px" y="0px"
	 width="50px" height="50px" viewBox="0 0 50 50" enable-background="new 0 0 50 50" xml:space="preserve">
<g>
	<path fill="none" stroke="#4DEFFF" stroke-width="3" stroke-miterlimit="10" d="M42.357,40.958H3.073V8.057h38.616
		c0,0,2.231-0.215,4.24,1.282c2.01,1.495,2.01,4.272,2.01,4.272v19.87"/>
	<path fill="none" stroke="#4DEFFF" stroke-width="3" stroke-miterlimit="10" d="M35.869,24.616c0,5.774-4.643,10.456-10.362,10.456
		c-5.721,0-10.363-4.682-10.363-10.456s4.642-10.455,10.363-10.455C31.227,14.161,35.869,18.841,35.869,24.616z"/>
</g>
<path fill="none" stroke="#78CBE4" stroke-width="3" stroke-linecap="round" stroke-miterlimit="10" d="M25.3,107.193l2.808-20.467
	c0,0,0.586-1.871,0.818-2.223c0.233-0.354,1.053-1.171,1.053-1.171l12.629-9.707c0,0,2.692-2.688,2.925-3.86
	c0.415-2.076-1.521-4.795-3.858-4.795H5.885c0,0-4.092,0.584-3.977,4.094c0.117,3.509,2.925,5.615,2.925,5.615l12.28,8.887
	c0,0,1.149,1.205,1.519,3.16c0.47,2.453,0.704,5.612,0.704,5.612"/>
<g>
	
		<ellipse fill="none" stroke="#78CBE4" stroke-width="3" stroke-linecap="round" stroke-miterlimit="10" cx="94.492" cy="75.953" rx="4.686" ry="4.414"/>
	<path fill="none" stroke="#78CBE4" stroke-width="3" stroke-linecap="round" stroke-miterlimit="10" d="M107.197,101.16
		c5.811-3.811,9.634-10.264,9.634-17.577c0-11.706-9.782-21.196-21.849-21.196c-12.067,0-21.851,9.49-21.851,21.196
		c0,11.705,9.782,21.196,21.851,21.196V86.578"/>
</g>
<g>
	<path fill="none" stroke="#78CBE4" stroke-width="3" stroke-miterlimit="10" d="M114.238,25.013c0-5.21,1.18-12.663-2.021-16.292
		c-3.793-4.302-12.474-4.326-18.672-4.326c-11.425,0-20.69,9.231-20.69,20.618s9.267,20.618,20.69,20.618
		C104.975,45.631,114.238,36.398,114.238,25.013z"/>
	<polyline fill="none" stroke="#78CBE4" stroke-width="3" stroke-miterlimit="10" points="96.936,17.659 90.448,24.58 
		96.792,31.213 	"/>
</g>
<g>
	<ellipse fill="none" stroke="#78CBE4" stroke-width="3" stroke-miterlimit="10" cx="94.617" cy="133.072" rx="5.48" ry="5.532"/>
	<path fill="none" stroke="#78CBE4" stroke-width="3" stroke-miterlimit="10" d="M109.382,133.32
		c0,7.826-13.433,27.703-14.122,27.703c-1.088,0-14.223-19.877-14.223-27.703c0-7.828,6.344-14.176,14.172-14.176
		S109.382,125.492,109.382,133.32z"/>
</g>
<g>
	<g>
		<path fill="none" stroke="#78CBE4" stroke-width="3" stroke-linecap="round" stroke-miterlimit="10" d="M15.335,156.018v-32.836
			h28.731v32.275c0,0,0.188,1.867-1.119,3.547s-3.731,1.68-3.731,1.68H21.865"/>
		<polyline fill="none" stroke="#78CBE4" stroke-width="3" stroke-linecap="round" stroke-miterlimit="10" points="8.432,150.98 
			8.432,116.65 37.723,116.65 		"/>
	</g>
</g>
</svg>
