<?xml version="1.0" encoding="utf-8"?>
<!-- Generator: Adobe Illustrator 15.0.2, SVG Export Plug-In . SVG Version: 6.00 Build 0)  -->
<!DOCTYPE svg PUBLIC "-//W3C//DTD SVG 1.1//EN" "http://www.w3.org/Graphics/SVG/1.1/DTD/svg11.dtd">
<svg version="1.1" id="Ebene_1" xmlns="http://www.w3.org/2000/svg" xmlns:xlink="http://www.w3.org/1999/xlink" x="0px" y="0px"
	 width="50px" height="50px" viewBox="0 0 50 50" enable-background="new 0 0 50 50" xml:space="preserve">
<g>
	<path fill="none" stroke="#CC0000" stroke-width="3" stroke-miterlimit="10" d="M42.452,40.958H3.167V8.057h38.616
		c0,0,2.232-0.215,4.241,1.282c2.01,1.495,2.01,4.272,2.01,4.272V33.48"/>
	<path fill="none" stroke="#CC0000" stroke-width="3" stroke-miterlimit="10" d="M35.962,24.616c0,5.774-4.642,10.456-10.362,10.456
		c-5.721,0-10.363-4.682-10.363-10.456c0-5.774,4.642-10.455,10.363-10.455C31.32,14.161,35.962,18.841,35.962,24.616z"/>
</g>
<path fill="none" stroke="#78CBE4" stroke-width="3" stroke-linecap="round" stroke-miterlimit="10" d="M25.394,107.193
	l2.807-20.466c0,0,0.586-1.872,0.819-2.223c0.233-0.353,1.052-1.171,1.052-1.171l12.63-9.707c0,0,2.692-2.689,2.924-3.86
	c0.415-2.077-1.521-4.795-3.858-4.795H5.979c0,0-4.092,0.584-3.977,4.094c0.117,3.508,2.925,5.615,2.925,5.615l12.28,8.887
	c0,0,1.149,1.204,1.519,3.16c0.47,2.453,0.704,5.612,0.704,5.612"/>
<g>
	
		<ellipse fill="none" stroke="#78CBE4" stroke-width="3" stroke-linecap="round" stroke-miterlimit="10" cx="94.586" cy="75.953" rx="4.686" ry="4.414"/>
	<path fill="none" stroke="#78CBE4" stroke-width="3" stroke-linecap="round" stroke-miterlimit="10" d="M107.291,101.16
		c5.811-3.811,9.634-10.263,9.634-17.577c0-11.706-9.782-21.197-21.848-21.197c-12.068,0-21.851,9.491-21.851,21.197
		c0,11.705,9.782,21.196,21.851,21.196V86.578"/>
</g>
<g>
	<path fill="none" stroke="#CC0000" stroke-width="3" stroke-miterlimit="10" d="M114.333,25.013c0-5.21,1.179-12.663-2.021-16.292
		c-3.793-4.302-12.474-4.326-18.672-4.326c-11.425,0-20.69,9.231-20.69,20.618s9.266,20.618,20.69,20.618
		C105.068,45.631,114.333,36.399,114.333,25.013z"/>
	<polyline fill="none" stroke="#CC0000" stroke-width="3" stroke-miterlimit="10" points="97.029,17.659 90.542,24.58 
		96.886,31.213 	"/>
</g>
<g>
	<ellipse fill="none" stroke="#78CBE4" stroke-width="3" stroke-miterlimit="10" cx="94.71" cy="133.072" rx="5.481" ry="5.532"/>
	<path fill="none" stroke="#78CBE4" stroke-width="3" stroke-miterlimit="10" d="M109.476,133.32
		c0,7.827-13.433,27.703-14.122,27.703c-1.088,0-14.223-19.876-14.223-27.703c0-7.828,6.344-14.175,14.172-14.175
		S109.476,125.492,109.476,133.32z"/>
</g>
<g>
	<g>
		<path fill="none" stroke="#78CBE4" stroke-width="3" stroke-linecap="round" stroke-miterlimit="10" d="M15.429,156.018v-32.836
			H44.16v32.275c0,0,0.188,1.867-1.119,3.547c-1.306,1.679-3.731,1.679-3.731,1.679H21.958"/>
		<polyline fill="none" stroke="#78CBE4" stroke-width="3" stroke-linecap="round" stroke-miterlimit="10" points="8.526,150.98 
			8.526,116.651 37.816,116.651 		"/>
	</g>
</g>
</svg>
